<?xml version="1.0" encoding="UTF-8"?>
<svg id="Layer_2" xmlns="http://www.w3.org/2000/svg" version="1.1" xmlns:xlink="http://www.w3.org/1999/xlink" viewBox="0 0 572.1 129.8">
  <!-- Generator: Adobe Illustrator 30.1.0, SVG Export Plug-In . SVG Version: 2.1.1 Build 136)  -->
  <defs>
    <style>
      .st0 {
        fill: url(#linear-gradient2);
      }

      .st1 {
        fill: #edf1f2;
      }

      .st2 {
        fill: #fff;
      }

      .st3 {
        fill: url(#linear-gradient1);
      }

      .st4 {
        fill: #85daff;
      }

      .st5 {
        fill: url(#radial-gradient);
      }

      .st6 {
        fill: #b0b0b0;
      }

      .st7 {
        fill: #6ab8a7;
      }

      .st8 {
        fill: #408b91;
      }

      .st9 {
        fill: url(#linear-gradient3);
      }

      .st10 {
        fill: url(#linear-gradient);
      }
    </style>
    <linearGradient id="linear-gradient" x1="419.1" y1="-429.2" x2="455.1" y2="-449.1" gradientTransform="translate(0 -392) scale(1 -1)" gradientUnits="userSpaceOnUse">
      <stop offset="0" stop-color="#52dcff"/>
      <stop offset="1" stop-color="#edf2f2"/>
    </linearGradient>
    <linearGradient id="linear-gradient1" x1="417.4" y1="-475.4" x2="582.2" y2="-461.2" gradientTransform="translate(0 -392) scale(1 -1)" gradientUnits="userSpaceOnUse">
      <stop offset="0" stop-color="#6ab8a7"/>
      <stop offset=".2" stop-color="#d8f2f8"/>
      <stop offset="1" stop-color="#fff"/>
    </linearGradient>
    <radialGradient id="radial-gradient" cx="475.4" cy="-1239.6" fx="475.4" fy="-1239.6" r="18.9" gradientTransform="translate(0 -812.9) scale(1 -.7)" gradientUnits="userSpaceOnUse">
      <stop offset="0" stop-color="#fc6dad"/>
      <stop offset="1" stop-color="#f01"/>
    </radialGradient>
    <linearGradient id="linear-gradient2" x1="421.3" y1="-425.7" x2="522" y2="-425.7" gradientTransform="translate(0 -392) scale(1 -1)" gradientUnits="userSpaceOnUse">
      <stop offset="0" stop-color="#2bbcff"/>
      <stop offset="1" stop-color="#fff"/>
    </linearGradient>
    <linearGradient id="linear-gradient3" x1="502.5" y1="-411.5" x2="565.4" y2="-411.5" gradientTransform="translate(0 -392) scale(1 -1)" gradientUnits="userSpaceOnUse">
      <stop offset="0" stop-color="#ebfbff"/>
      <stop offset="1" stop-color="#b2dcf7"/>
    </linearGradient>
  </defs>
  <g id="Layer_1-2">
    <g>
      <path class="st10" d="M458.5,64c-2.1-7.1-.4-15.5,5.4-20.4,8.6-7.3,23.8-4.5,29.3,5.3h.2c-1.7-11.6-9.8-22-20.6-26.5-11-4.6-24.4-3-34,4-7,5.1-11.7,12.6-17.3,19.2v31.4c0,3.7,1.8,6.9,4.6,8.8,9.4-6.1,18.4-13.1,27.8-19,1.5-.9,3-1.9,4.6-2.8h0Z"/>
      <path class="st1" d="M493.3,48.8h-.2c0,.2.2.3.3.5v-.6h0Z"/>
      <path class="st3" d="M521.8,63.3c-9.8,2.1-18.5,7.7-28,11.3-9.4,3.6-20.8,4.9-28.9-1.1-3.2-2.4-5.4-5.8-6.5-9.6-1.5.9-3.1,1.8-4.6,2.8-9.5,5.9-18.5,12.9-27.9,19,1.7,1.2,3.9,1.9,6.1,1.9h122.5c5.9,0,10.8-4.8,10.8-10.8v-5.1c-3-1.7-6-3.5-9-5.4-11.5-3.2-23-5.6-34.6-3.1h0Z"/>
      <path class="st1" d="M565.4,71.9v-2.8c-3-.9-6-1.8-9-2.6,3,1.9,6,3.7,9,5.4h0Z"/>
      <path class="st7" d="M493.4,49.4c0-.2-.2-.3-.3-.5-12,3.8-23.6,8.7-34.7,15.1,1.1,3.8,3.2,7.2,6.5,9.6,8.1,5.9,19.5,4.6,28.9,1.1,9.4-3.6,18.1-9.1,28-11.3,11.5-2.5,23,0,34.6,3.1-3.5-2.2-6.9-4.6-10.3-7-8-5.7-16-11.8-24.1-17.5-9.8,1.7-19.4,3.9-28.7,6.9v.6h.1Z"/>
      <path class="st5" d="M463.8,43.6c-5.7,4.9-7.5,13.2-5.4,20.4,11-6.4,22.6-11.3,34.7-15.1-5.5-9.8-20.7-12.6-29.3-5.3h0Z"/>
      <path class="st0" d="M438.7,26.3c9.6-7.1,23-8.7,34-4,10.8,4.6,18.9,15,20.6,26.5,9.4-3,19-5.2,28.7-6.9-19.3-13.5-39.5-24.7-63.9-23.2-11.7.7-24.1,4.4-36.8,10.8v16c5.6-6.6,10.3-14.1,17.3-19.2,0,0,.1,0,.1,0Z"/>
      <path class="st4" d="M536.3,29.4c-19.7-.6-37.2-10.9-55.2-19.7h-49c-5.9,0-10.8,4.8-10.8,10.8v9.1c12.7-6.4,25.1-10.1,36.8-10.8,24.4-1.5,44.6,9.7,63.9,23.2,6.7-1.2,13.5-2.1,20.4-2.7,7.6-.7,15.3-1.2,23-1.4v-15.1c-8.9,4.6-19,7-29.1,6.7h0Z"/>
      <path class="st9" d="M565.4,22.7v-2.3c0-5.9-4.8-10.8-10.8-10.8h-73.5c18,8.8,35.4,19.1,55.2,19.7,10,.3,20.2-2.1,29.1-6.7h0Z"/>
      <path class="st8" d="M522,41.9c8.1,5.7,16,11.8,24.1,17.5,3.4,2.4,6.8,4.8,10.3,7,3,.8,6,1.7,9,2.6v-31.3c-7.7.2-15.4.7-23,1.4-6.8.7-13.6,1.6-20.4,2.7h0Z"/>
    </g>
  </g>
  <g>
    <path class="st6" d="M17.5,121c-.7.2-1.5.4-2.3.4-1.2,0-2.2-.2-3.1-.7s-1.5-1.1-2-2-.7-1.9-.7-3.1.1-1.7.4-2.4.6-1.3,1.1-1.8,1.1-.9,1.8-1.2c.7-.3,1.5-.4,2.4-.4s1.5,0,2.2.3c.7.2,1.2.6,1.7,1l1.3-2.1c-.7-.6-1.4-1-2.3-1.3s-1.9-.5-3.1-.5-2.3.2-3.3.6-1.9,1-2.6,1.7-1.3,1.6-1.7,2.6c-.4,1-.6,2.1-.6,3.3s.3,3.1,1,4.3c.7,1.2,1.6,2.2,2.9,2.9,1.2.7,2.6,1,4.3,1s2.3-.2,3.3-.5,1.8-.8,2.6-1.4l-1.2-2.1c-.7.5-1.3.9-2.1,1.2,0,0,0,.2,0,.2Z"/>
    <path class="st6" d="M38.6,109.8c-.7-.7-1.6-1.3-2.6-1.8-1-.4-2.1-.6-3.3-.6s-2.3.2-3.3.6-1.9,1-2.6,1.7-1.3,1.6-1.7,2.6c-.4,1-.6,2.1-.6,3.2s.2,2.2.6,3.2,1,1.9,1.7,2.6,1.6,1.3,2.6,1.7c1,.4,2.1.6,3.3.6s2.3-.2,3.3-.6,1.9-1,2.6-1.7c.8-.7,1.3-1.6,1.7-2.6s.6-2.1.6-3.2-.2-2.2-.6-3.2c-.4-1-1-1.9-1.7-2.6h0ZM37.9,118c-.3.7-.7,1.3-1.2,1.8s-1.1.9-1.8,1.2-1.4.4-2.2.4-2-.2-2.9-.7-1.5-1.2-2-2c-.5-.9-.8-1.9-.8-3.1s.1-1.7.4-2.4.7-1.3,1.2-1.8,1.1-.9,1.8-1.2c.7-.3,1.4-.4,2.2-.4s2,.2,2.9.7,1.5,1.2,2,2c.5.9.7,1.9.7,3.1s0,1.7-.4,2.4h0Z"/>
    <polygon class="st6" points="54.7 117.3 48.8 107.7 46.3 107.7 46.3 123.4 48.6 123.4 48.6 111.9 53.6 120.1 55.5 120.1 60.3 112 60.3 123.4 62.8 123.4 62.8 107.7 60.4 107.7 54.7 117.3"/>
    <polygon class="st6" points="69.1 123.4 71.6 123.4 71.6 116.8 78.2 116.8 78.2 114.5 71.6 114.5 71.6 110 78.8 110 78.8 107.7 69.1 107.7 69.1 123.4"/>
    <polygon class="st6" points="89.4 114.2 85.4 107.7 82.5 107.7 88.1 116.7 88.1 123.4 90.6 123.4 90.6 116.7 96.2 107.7 93.4 107.7 89.4 114.2"/>
    <path class="st6" d="M110.7,117.3c0,1.4-.3,2.4-1,3.1s-1.6,1-2.8,1-2.1-.3-2.8-1c-.7-.7-1-1.7-1-3.1v-9.6h-2.5v9.6c0,1.2.2,2.3.7,3.3s1.2,1.8,2.1,2.3c.9.6,2.1.9,3.5.9s2.6-.3,3.5-.9,1.6-1.3,2.1-2.3.7-2.1.7-3.3v-9.6h-2.5v9.6h0Z"/>
    <rect class="st6" x="119.5" y="107.7" width="2.5" height="15.7"/>
    <path class="st6" d="M143.3,117.2h3.6v3.8c-.3.2-.7.3-1.2.4s-1,.2-1.6.2c-1.2,0-2.3-.2-3.3-.7s-1.7-1.1-2.2-2-.8-2-.8-3.2.1-1.7.4-2.5c.3-.7.7-1.3,1.2-1.9.5-.5,1.2-.9,1.9-1.2.7-.3,1.6-.4,2.5-.4s1.4,0,2.1.3c.7.2,1.3.5,1.8.8l1.1-2c-.5-.4-1-.6-1.6-.8s-1.1-.4-1.7-.4h-1.7c-1.2,0-2.4.2-3.4.6s-1.9.9-2.7,1.7c-.8.7-1.4,1.6-1.8,2.6-.4,1-.6,2.1-.6,3.4s.2,2.4.7,3.4c.4,1,1.1,1.9,1.9,2.6.8.7,1.7,1.3,2.8,1.6,1.1.4,2.2.6,3.5.6s1.1,0,1.7-.2c.7,0,1.3-.3,1.9-.5.6-.2,1.1-.4,1.5-.7v-7.4h-5.8v2.1h-.2v-.2Z"/>
    <polygon class="st6" points="157.8 116.3 164.4 116.3 164.4 114.2 157.8 114.2 157.8 109.9 165.4 109.9 165.4 107.7 155.3 107.7 155.3 123.4 165.5 123.4 165.5 121.2 157.8 121.2 157.8 116.3"/>
    <polygon class="st6" points="181.6 119.1 173.7 107.7 171.3 107.7 171.3 123.4 173.7 123.4 173.7 111.9 181.7 123.4 184.1 123.4 184.1 107.7 181.6 107.7 181.6 119.1"/>
    <polygon class="st6" points="193 116.3 199.6 116.3 199.6 114.2 193 114.2 193 109.9 200.6 109.9 200.6 107.7 190.4 107.7 190.4 123.4 200.7 123.4 200.7 121.2 193 121.2 193 116.3"/>
    <path class="st6" d="M215.9,115.9c.6-.4,1.1-.9,1.4-1.5.3-.6.5-1.3.5-2.1s-.2-1.8-.7-2.5-1.1-1.2-1.9-1.6c-.8-.4-1.7-.6-2.8-.6h-5.9v15.7h2.5v-6.3h2.1l4.4,6.3h3l-4.7-6.7c.8,0,1.5-.4,2.1-.8h0ZM209,115v-5.2h3.2c1,0,1.8.2,2.3.7s.8,1.1.8,1.9-.3,1.4-.8,1.9c-.6.4-1.4.7-2.4.7h-3.1Z"/>
    <path class="st6" d="M228,107.7l-6.1,15.7h2.8l1.4-3.8h6.7l1.5,3.8h2.8l-6.3-15.7h-2.8,0ZM226.7,117.5l2.6-6.8,2.7,6.8h-5.3Z"/>
    <polygon class="st6" points="239.1 110 243.5 110 243.5 123.4 246 123.4 246 110 250.4 110 250.4 107.7 239.1 107.7 239.1 110"/>
    <rect class="st6" x="255.3" y="107.7" width="2.5" height="15.7"/>
    <polygon class="st6" points="269.7 120.1 265.1 107.7 262.3 107.7 268.3 123.4 271 123.4 276.9 107.7 274.1 107.7 269.7 120.1"/>
    <polygon class="st6" points="283.9 116.3 290.5 116.3 290.5 114.2 283.9 114.2 283.9 109.9 291.5 109.9 291.5 107.7 281.3 107.7 281.3 123.4 291.6 123.4 291.6 121.2 283.9 121.2 283.9 116.3"/>
    <polygon class="st6" points="319.5 119.9 315.9 107.7 313.3 107.7 309.7 120 306.2 107.7 303.6 107.7 308.3 123.4 311 123.4 314.5 111.5 318.1 123.4 320.7 123.4 325.4 107.7 322.9 107.7 319.5 119.9"/>
    <path class="st6" d="M343.1,109.8c-.7-.7-1.6-1.3-2.6-1.8-1-.4-2.1-.6-3.3-.6s-2.3.2-3.3.6-1.9,1-2.6,1.7-1.3,1.6-1.7,2.6c-.4,1-.6,2.1-.6,3.2s.2,2.2.6,3.2,1,1.9,1.7,2.6,1.6,1.3,2.6,1.7c1,.4,2.1.6,3.3.6s2.3-.2,3.3-.6,1.9-1,2.6-1.7c.8-.7,1.3-1.6,1.7-2.6.4-1,.6-2.1.6-3.2s-.2-2.2-.6-3.2-1-1.9-1.7-2.6h0ZM342.5,118c-.3.7-.7,1.3-1.2,1.8s-1.1.9-1.8,1.2-1.4.4-2.2.4-2-.2-2.9-.7-1.5-1.2-2-2c-.5-.9-.8-1.9-.8-3.1s.1-1.7.4-2.4.7-1.3,1.2-1.8,1.1-.9,1.8-1.2c.7-.3,1.4-.4,2.2-.4s2,.2,2.9.7,1.5,1.2,2,2c.5.9.7,1.9.7,3.1s-.1,1.7-.4,2.4h0Z"/>
    <path class="st6" d="M360.3,115.9c.6-.4,1.1-.9,1.4-1.5s.5-1.3.5-2.1-.2-1.8-.7-2.5c-.4-.7-1.1-1.2-1.9-1.6s-1.7-.6-2.8-.6h-5.9v15.7h2.5v-6.3h2.1l4.4,6.3h3l-4.7-6.7c.8,0,1.5-.4,2.1-.8h0ZM353.4,115v-5.2h3.2c1,0,1.8.2,2.3.7s.8,1.1.8,1.9-.3,1.4-.8,1.9c-.6.4-1.4.7-2.4.7h-3.1Z"/>
    <polygon class="st6" points="380.2 107.7 377.1 107.7 370.6 115.8 370.6 107.7 368.1 107.7 368.1 123.4 370.6 123.4 370.6 119.4 372.8 116.8 377.8 123.4 381.1 123.4 374.5 114.8 380.2 107.7"/>
    <polygon class="st6" points="386 123.4 388.5 123.4 388.5 116.8 395 116.8 395 114.5 388.5 114.5 388.5 110 395.7 110 395.7 107.7 386 107.7 386 123.4"/>
    <polygon class="st6" points="403.8 107.7 401.3 107.7 401.3 123.4 410.6 123.4 410.6 121.1 403.8 121.1 403.8 107.7"/>
    <path class="st6" d="M428.3,109.8c-.8-.7-1.6-1.3-2.6-1.8s-2.1-.6-3.3-.6-2.3.2-3.3.6-1.9,1-2.6,1.7-1.3,1.6-1.7,2.6-.6,2.1-.6,3.2.2,2.2.6,3.2,1,1.9,1.7,2.6c.8.7,1.6,1.3,2.6,1.7,1,.4,2.1.6,3.3.6s2.3-.2,3.3-.6,1.9-1,2.6-1.7,1.3-1.6,1.7-2.6.6-2.1.6-3.2-.2-2.2-.6-3.2-1-1.9-1.7-2.6h0ZM427.6,118c-.3.7-.7,1.3-1.2,1.8s-1.1.9-1.8,1.2c-.7.3-1.4.4-2.2.4s-2-.2-2.9-.7-1.5-1.2-2-2-.8-1.9-.8-3.1.1-1.7.4-2.4c.3-.7.7-1.3,1.2-1.8s1.1-.9,1.8-1.2c.7-.3,1.4-.4,2.2-.4s2,.2,2.9.7,1.5,1.2,2,2c.5.9.7,1.9.7,3.1s-.1,1.7-.4,2.4h0Z"/>
    <polygon class="st6" points="450 119.9 446.4 107.7 443.8 107.7 440.2 120 436.8 107.7 434.2 107.7 438.9 123.4 441.5 123.4 445.1 111.5 448.6 123.4 451.3 123.4 456 107.7 453.4 107.7 450 119.9"/>
    <path class="st6" d="M475.4,114.7l-1.7-.5c-.8-.2-1.4-.4-1.8-.7-.4-.2-.7-.5-.9-.7s-.3-.6-.3-.9.1-.9.4-1.3.6-.6,1.1-.8c.5-.2,1-.3,1.7-.3s1,0,1.5.2c.5,0,1,.3,1.4.5s.8.5,1.1.7l1.3-1.9c-.6-.5-1.3-.9-2.2-1.2-.9-.3-1.9-.5-2.9-.5s-1.6,0-2.3.3c-.7.2-1.3.5-1.8.9s-.9.9-1.2,1.5c-.3.6-.4,1.2-.4,1.9,0,1,.3,1.9,1,2.6s1.8,1.3,3.2,1.7l1.6.5c1.2.3,2,.7,2.4,1.1s.6.9.6,1.4-.3,1.3-1,1.7c-.6.4-1.5.6-2.5.6s-1.1,0-1.7-.2c-.6,0-1.1-.3-1.6-.5s-.9-.5-1.3-.8l-1.2,1.9c.7.6,1.6,1,2.6,1.3s2.1.5,3.2.5,2.3-.2,3.2-.6,1.5-1,2-1.7.7-1.5.7-2.5-.3-2-1-2.7-1.7-1.2-3.2-1.7v.2h0Z"/>
    <polygon class="st6" points="489.7 114.2 485.7 107.7 482.8 107.7 488.4 116.7 488.4 123.4 490.9 123.4 490.9 116.7 496.5 107.7 493.7 107.7 489.7 114.2"/>
    <path class="st6" d="M507.3,114.7l-1.7-.5c-.8-.2-1.4-.4-1.8-.7-.4-.2-.7-.5-.9-.7s-.3-.6-.3-.9.1-.9.4-1.3.6-.6,1.1-.8c.5-.2,1-.3,1.7-.3s1,0,1.5.2c.5,0,1,.3,1.4.5s.8.5,1.1.7l1.3-1.9c-.6-.5-1.3-.9-2.2-1.2-.9-.3-1.9-.5-2.9-.5s-1.6,0-2.3.3c-.7.2-1.3.5-1.8.9s-.9.9-1.2,1.5c-.3.6-.4,1.2-.4,1.9,0,1,.3,1.9,1,2.6s1.8,1.3,3.2,1.7l1.6.5c1.2.3,2,.7,2.4,1.1s.6.9.6,1.4-.3,1.3-1,1.7c-.6.4-1.5.6-2.5.6s-1.1,0-1.7-.2c-.6,0-1.1-.3-1.6-.5s-.9-.5-1.3-.8l-1.2,1.9c.7.6,1.6,1,2.6,1.3s2.1.5,3.2.5,2.3-.2,3.2-.6,1.5-1,2-1.7.7-1.5.7-2.5-.3-2-1-2.7-1.7-1.2-3.2-1.7v.2h0Z"/>
    <polygon class="st6" points="515.4 110 519.8 110 519.8 123.4 522.4 123.4 522.4 110 526.8 110 526.8 107.7 515.4 107.7 515.4 110"/>
    <polygon class="st6" points="534.2 116.3 540.8 116.3 540.8 114.2 534.2 114.2 534.2 109.9 541.9 109.9 541.9 107.7 531.7 107.7 531.7 123.4 541.9 123.4 541.9 121.2 534.2 121.2 534.2 116.3"/>
    <polygon class="st6" points="561.8 107.7 556.1 117.3 550.2 107.7 547.7 107.7 547.7 123.4 550 123.4 550 111.9 555 120.1 556.9 120.1 561.7 112 561.7 123.4 564.2 123.4 564.2 107.7 561.8 107.7"/>
  </g>
  <path class="st2" d="M386.4,87.7l-31-76.1c-.2-.4-.6-.7-1-.7h-12c-.5,0-.9.3-1,.7l-13.2,32.2c-.7-.3-1.4-.4-2.2-.4-2.4,0-4.5,1.5-5.3,3.6h-20.3c-.9-2.1-2.9-3.6-5.3-3.6V12.1c0-.6-.5-1.1-1.1-1.1h-17c-.4,0-.8.3-1,.6l-16.1,34c-1.9,4-3.4,7.3-4.5,9.9-1.1,2.6-2,4.8-2.6,6.5-.2.4-.3.8-.4,1.2-.3,1-1.8,1-2.1,0-.1-.4-.3-.8-.4-1.2-.6-1.7-1.5-3.9-2.7-6.5s-2.7-5.9-4.5-9.9l-15.9-34c-.2-.4-.6-.7-1-.7h-17.6c-.6,0-1.1.5-1.1,1.1v31.3h0c-2.4,0-4.5,1.5-5.3,3.6h-11.5c-.9-2.1-2.9-3.6-5.3-3.6s0,0-.1,0V12.1c0-.6-.5-1.1-1.1-1.1h-13.4c-.6,0-1.1.5-1.1,1.1v31.3h-.2c-2.4,0-4.5,1.5-5.3,3.6h-11.8c-.8-2-2.7-3.4-4.9-3.5V12.1c0-.6-.5-1.1-1.1-1.1h-13.4c-.6,0-1.1.5-1.1,1.1v29.3c0,.6-.5,1.1-1.1,1.1h-30.2c-.6,0-1.1-.5-1.1-1.1V12.1c0-.6-.5-1.1-1.1-1.1h-13.4c-.6,0-1.1.5-1.1,1.1v31.3c-2.1,0-3.9,1.3-4.8,3.1-7.8-2.1-14.1-10.3-17.2-15.1,1.1-1,1.7-2.5,1.7-4.1s-.2-1.5-.4-2.2l.3-.2c.5-.3.7-1.1.4-1.6-2.8-4.1-6.1-7.4-9.9-9.8-4.1-2.6-9.8-3.8-15.3-3.8s-10.3,1-14.5,2.9c-4.1,1.9-7.3,4.7-9.7,8.2-2.3,3.5-3.5,6.4-3.5,12.3s1.8,10.6,5.4,14.3c3.6,3.6,8.4,6.2,14.4,7.8,3.2.8,6.2,1.7,8.9,2.7s4.9,2.2,6.5,3.8c1.6,1.5,2.4,3.6,2.4,6.3s-1,4.8-3.1,6.5c-2.1,1.6-5.2,2.4-8.6,2.4s-6.6-.9-9.7-2.7c-2.8-1.7-5.2-4.3-7.1-7.7-.3-.6-1-.7-1.6-.4l-11.6,7.4c-.5.3-.7,1-.4,1.5,3.3,5.5,7.5,9.4,12.3,12,5.2,2.7,10.9,4,17.1,4h0c6,0,11.1-1,15.3-3,4.3-2,7.5-4.8,9.8-8.4s3.5-8,3.5-12.4-.9-8.2-2.6-11.1c-1.7-2.9-3.9-5.2-6.6-7-2.7-1.8-5.5-3.1-8.4-4.1s-5.5-1.9-7.8-2.6c-3.5-1-6.4-2.2-8.8-3.5s-3.6-3.7-3.6-6.3,1-4.7,3.1-6.3c2-1.5,4.9-2.3,7.8-2.3s5.4.7,7.4,2.1c1.8,1.3,3.5,3.2,5.2,5.8.3.5,1,.7,1.6.4l1.5-.9c1.1,1.2,2.6,2,4.3,2s.6,0,.9,0c3.4,5.3,10.5,14.7,19.9,17,.4,2.7,2.6,4.7,5.4,4.8v34.5h14.6c.6,0,1.1-.5,1.1-1.1v-30.4c0-.6.5-1.1,1.1-1.1h30.2c.6,0,1.1.5,1.1,1.1v30.4c0,.6.5,1.1,1.1,1.1h13.4c.6,0,1.1-.5,1.1-1.1v-33.3c2.6-.2,4.7-2,5.2-4.4h11.3c.6,2.5,2.9,4.4,5.6,4.4s.2,0,.2,0v34.4h14.6c.6,0,1.1-.5,1.1-1.1v-33.3h.1c2.7,0,5-1.9,5.6-4.4h11c.6,2.5,2.9,4.4,5.6,4.4s0,0,0,0v34.4h14.3c.6,0,1.1-.5,1.1-1.1v-30.5c0-3.6,0-6.6-.1-9.2,0-2.6-.2-4.9-.3-7h0c-.1-1.3,1.6-1.8,2.1-.7l23,47.9c.2.4.6.6,1,.6h6.2c.4,0,.8-.2,1-.6l23-47.9c.5-1.1,2.2-.7,2.1.6h0c-.2,2.2-.3,4.5-.3,7.1-.1,2.6-.1,5.6-.1,9.2v30.5c0,.6.5,1.1,1.1,1.1h13.1c.6,0,1.1-.5,1.1-1.1v-33.3c2.7,0,5-1.9,5.6-4.4h19.7c.4,1.8,1.7,3.3,3.4,4l-14.2,34.8h16.1c.5,0,.9-.3,1.1-.7l4.9-13.4c.2-.4.6-.7,1.1-.7h31.1c.5,0,.9.3,1.1.7l4.9,13.4c.2.4.6.7,1.1.7h14.5c.8,0,1.4-.8,1-1.6l-.7-.4ZM357.8,60.9h-19.1c-.8,0-1.3-.8-1.1-1.5l7.8-19.8c.6-1.6,1.2-3.3,1.7-5,.3-1.1,1.8-1.1,2.2,0,.5,1.7,1.1,3.3,1.7,5l7.8,19.8c.3.7-.3,1.5-1.1,1.5h.1Z"/>
</svg>