<?xml version="1.0" encoding="UTF-8"?>
<svg id="Layer_2" data-name="Layer 2" xmlns="http://www.w3.org/2000/svg" xmlns:xlink="http://www.w3.org/1999/xlink" viewBox="0 0 667.11 151.9">
  <defs>
    <style>
      .cls-1 {
        fill: #fff;
      }

      .cls-2 {
        fill: #333;
      }

      .cls-3 {
        fill: url(#linear-gradient);
      }
    </style>
    <linearGradient id="linear-gradient" x1="333.56" y1="9.39" x2="333.56" y2="140.51" gradientUnits="userSpaceOnUse">
      <stop offset="0" stop-color="#999"/>
      <stop offset="1" stop-color="#ccc"/>
    </linearGradient>
  </defs>
  <g id="Layer_1-2" data-name="Layer 1">
    <g>
      <path class="cls-2" d="M667.11,136.6L613.01,3.6c-.3-.7-1-1.2-1.8-1.2h-21c-.8,0-1.5.5-1.8,1.2l-23,56.3c-1.2-.5-2.5-.8-3.8-.8-4.2,0-7.8,2.6-9.3,6.2h-35.5c-1.5-3.6-5.1-6.2-9.3-6.2V4.4c0-1.1-.9-2-2-2h-29.7c-.8,0-1.5.4-1.8,1.1l-28.1,59.4c-3.3,7.1-6,12.8-7.9,17.4-2,4.6-3.6,8.3-4.6,11.3-.3.7-.5,1.4-.8,2.1-.6,1.8-3.1,1.8-3.7,0-.2-.7-.5-1.4-.8-2.2-1.1-3-2.7-6.8-4.7-11.3-2.1-4.6-4.7-10.3-7.9-17.4l-27.9-59.4c-.3-.7-1-1.1-1.8-1.1h-30.8c-1.1,0-2,.9-2,2v54.7h-.2c-4.2,0-7.8,2.6-9.3,6.2h-20.2c-1.5-3.7-5.1-6.2-9.3-6.2s-.1,0-.2,0V4.4c0-1.1-.9-2-2-2h-23.5c-1.1,0-2,.9-2,2v54.8h-.4c-4.2,0-7.8,2.6-9.3,6.2h-20.7c-1.4-3.5-4.7-5.9-8.6-6.2V4.4c0-1.1-.9-2-2-2h-23.5c-1.1,0-2,.9-2,2v51.2c0,1.1-.9,2-2,2h-52.8c-1.1,0-2-.9-2-2V4.4c0-1.1-.9-2-2-2h-23.5c-1.1,0-2,.9-2,2v54.6c-3.7.2-6.9,2.3-8.5,5.5-13.6-3.6-24.6-18-30.1-26.5,1.8-1.8,3-4.3,3-7.1s-.3-2.7-.8-3.9l.6-.4c.9-.6,1.2-1.8.6-2.8-4.8-7.2-10.6-12.9-17.3-17.1-7.2-4.5-17.2-6.7-26.8-6.7s-18.1,1.7-25.3,5.1c-7.3,3.4-12.8,8.1-16.9,14.3-4.1,6.2-6.1,11.2-6.1,21.6s3.2,18.6,9.4,24.9c6.3,6.4,14.7,10.8,25.2,13.6,5.7,1.4,10.8,3,15.6,4.7,4.8,1.7,8.5,3.9,11.4,6.7,2.9,2.7,4.3,6.3,4.3,10.9s-1.8,8.4-5.5,11.3-9.1,4.3-15.1,4.3-11.6-1.6-17-4.8c-4.9-3-9-7.4-12.3-13.5-.5-1-1.8-1.3-2.8-.7L.91,111.3c-.9.6-1.2,1.8-.6,2.7,5.8,9.6,13,16.5,21.6,20.9,9,4.7,19,7,29.8,7h0c10.4,0,19.4-1.7,26.8-5.2,7.5-3.6,13.1-8.4,17.2-14.7s6.1-13.9,6.1-21.8-1.5-14.3-4.5-19.4-6.9-9.1-11.5-12.2c-4.8-3.1-9.5-5.5-14.6-7.3-5.1-1.7-9.5-3.3-13.6-4.6-6.1-1.8-11.1-3.9-15.4-6.2s-6.4-6.5-6.4-11,1.8-8.1,5.4-10.9c3.6-2.7,8.5-4.1,13.6-4.1s9.4,1.2,12.9,3.7c3.1,2.2,6.1,5.6,9.1,10.1.6.9,1.8,1.2,2.7.6l2.6-1.6c1.8,2.1,4.5,3.5,7.6,3.5s1,0,1.5-.2c5.9,9.3,18.4,25.7,34.7,29.8.7,4.7,4.6,8.2,9.4,8.5v60.3h25.4c1.1,0,2-.9,2-2v-53.2c0-1.1.9-2,2-2h52.8c1.1,0,2,.9,2,2v53.2c0,1.1.9,2,2,2h23.5c1.1,0,2-.9,2-2v-58.2c4.5-.3,8.1-3.5,9.1-7.7h19.7c1,4.4,5,7.8,9.8,7.8s.3,0,.4,0v60.1h25.4c1.1,0,2-.9,2-2v-58.2h.2c4.8,0,8.7-3.3,9.8-7.8h19.2c1,4.4,5,7.8,9.8,7.8s.1,0,.2,0v60.1h25c1.1,0,2-.9,2-2v-53.4c0-6.4,0-11.6-.2-16.1,0-4.5-.3-8.5-.6-12.2h0c-.2-2.3,2.8-3.1,3.8-1.1l40.1,83.7c.3.7,1,1.1,1.8,1.1h10.8c.8,0,1.5-.4,1.8-1.1l40.1-83.7c1-2,3.9-1.2,3.8,1h0c-.3,3.8-.5,7.9-.6,12.3-.2,4.5-.2,9.8-.2,16.1v53.4c0,1.1.9,2,2,2h22.9c1.1,0,2-.9,2-2v-58.2c4.8,0,8.7-3.3,9.8-7.8h34.5c.7,3.2,3,5.8,6,7l-24.8,60.8h28.2c.8,0,1.6-.5,1.9-1.3l8.5-23.4c.3-.8,1-1.3,1.9-1.3h54.3c.8,0,1.6.5,1.9,1.3l8.5,23.4c.3.8,1,1.3,1.9,1.3h25.4c1.4,0,2.4-1.4,1.8-2.7l.2.4h0ZM617.31,89.6h-33.3c-1.4,0-2.4-1.4-1.8-2.7l13.6-34.7c1.1-2.8,2.1-5.7,3-8.7.6-1.9,3.2-1.9,3.8,0,.9,2.9,1.9,5.8,3,8.7l13.6,34.7c.5,1.3-.4,2.7-1.8,2.7h-.1Z"/>
      <path class="cls-1" d="M667.11,146.6l-54.1-133c-.3-.7-1-1.2-1.8-1.2h-21c-.8,0-1.5.5-1.8,1.2l-23,56.3c-1.2-.5-2.5-.8-3.8-.8-4.2,0-7.8,2.6-9.3,6.2h-35.5c-1.5-3.6-5.1-6.2-9.3-6.2V14.4c0-1.1-.9-2-2-2h-29.7c-.8,0-1.5.4-1.8,1.1l-28.1,59.4c-3.3,7.1-6,12.8-7.9,17.4-2,4.6-3.6,8.3-4.6,11.3-.3.7-.5,1.4-.8,2.1-.6,1.8-3.1,1.8-3.7,0-.2-.7-.5-1.4-.8-2.2-1.1-3-2.7-6.8-4.7-11.3-2.1-4.6-4.7-10.3-7.9-17.4l-27.9-59.4c-.3-.7-1-1.1-1.8-1.1h-30.8c-1.1,0-2,.9-2,2v54.7h-.2c-4.2,0-7.8,2.6-9.3,6.2h-20.2c-1.5-3.7-5.1-6.2-9.3-6.2s-.1,0-.2,0V14.4c0-1.1-.9-2-2-2h-23.5c-1.1,0-2,.9-2,2v54.8h-.4c-4.2,0-7.8,2.6-9.3,6.2h-20.7c-1.4-3.5-4.7-5.9-8.6-6.2V14.4c0-1.1-.9-2-2-2h-23.5c-1.1,0-2,.9-2,2v51.2c0,1.1-.9,2-2,2h-52.8c-1.1,0-2-.9-2-2V14.4c0-1.1-.9-2-2-2h-23.5c-1.1,0-2,.9-2,2v54.6c-3.7.2-6.9,2.3-8.5,5.5-13.6-3.6-24.6-18-30.1-26.5,1.8-1.8,3-4.3,3-7.1s-.3-2.7-.8-3.9l.6-.4c.9-.6,1.2-1.8.6-2.8-4.8-7.2-10.6-12.9-17.3-17.1-7.2-4.5-17.2-6.7-26.8-6.7s-18.1,1.7-25.3,5.1c-7.3,3.4-12.8,8.1-16.9,14.3-4.1,6.2-6.1,11.2-6.1,21.6s3.2,18.6,9.4,24.9c6.3,6.4,14.7,10.8,25.2,13.6,5.7,1.4,10.8,3,15.6,4.7,4.8,1.7,8.5,3.9,11.4,6.7,2.9,2.7,4.3,6.3,4.3,10.9s-1.8,8.4-5.5,11.3-9.1,4.3-15.1,4.3-11.6-1.6-17-4.8c-4.9-3-9-7.4-12.3-13.5-.5-1-1.8-1.3-2.8-.7L.91,121.3c-.9.6-1.2,1.8-.6,2.7,5.8,9.6,13,16.5,21.6,20.9,9,4.7,19,7,29.8,7h0c10.4,0,19.4-1.7,26.8-5.2,7.5-3.6,13.1-8.4,17.2-14.7s6.1-13.9,6.1-21.8-1.5-14.3-4.5-19.4-6.9-9.1-11.5-12.2c-4.8-3.1-9.5-5.5-14.6-7.3-5.1-1.7-9.5-3.3-13.6-4.6-6.1-1.8-11.1-3.9-15.4-6.2s-6.4-6.5-6.4-11,1.8-8.1,5.4-10.9c3.6-2.7,8.5-4.1,13.6-4.1s9.4,1.2,12.9,3.7c3.1,2.2,6.1,5.6,9.1,10.1.6.9,1.8,1.2,2.7.6l2.6-1.6c1.8,2.1,4.5,3.5,7.6,3.5s1,0,1.5-.2c5.9,9.3,18.4,25.7,34.7,29.8.7,4.7,4.6,8.2,9.4,8.5v60.3h25.4c1.1,0,2-.9,2-2v-53.2c0-1.1.9-2,2-2h52.8c1.1,0,2,.9,2,2v53.2c0,1.1.9,2,2,2h23.5c1.1,0,2-.9,2-2v-58.2c4.5-.3,8.1-3.5,9.1-7.7h19.7c1,4.4,5,7.8,9.8,7.8s.3,0,.4,0v60.1h25.4c1.1,0,2-.9,2-2v-58.2h.2c4.8,0,8.7-3.3,9.8-7.8h19.2c1,4.4,5,7.8,9.8,7.8s.1,0,.2,0v60.1h25c1.1,0,2-.9,2-2v-53.4c0-6.4,0-11.6-.2-16.1,0-4.5-.3-8.5-.6-12.2h0c-.2-2.3,2.8-3.1,3.8-1.1l40.1,83.7c.3.7,1,1.1,1.8,1.1h10.8c.8,0,1.5-.4,1.8-1.1l40.1-83.7c1-2,3.9-1.2,3.8,1h0c-.3,3.8-.5,7.9-.6,12.3-.2,4.5-.2,9.8-.2,16.1v53.4c0,1.1.9,2,2,2h22.9c1.1,0,2-.9,2-2v-58.2c4.8,0,8.7-3.3,9.8-7.8h34.5c.7,3.2,3,5.8,6,7l-24.8,60.8h28.2c.8,0,1.6-.5,1.9-1.3l8.5-23.4c.3-.8,1-1.3,1.9-1.3h54.3c.8,0,1.6.5,1.9,1.3l8.5,23.4c.3.8,1,1.3,1.9,1.3h25.4c1.4,0,2.4-1.4,1.8-2.7l.2.4h0ZM617.31,99.6h-33.3c-1.4,0-2.4-1.4-1.8-2.7l13.6-34.7c1.1-2.8,2.1-5.7,3-8.7.6-1.9,3.2-1.9,3.8,0,.9,2.9,1.9,5.8,3,8.7l13.6,34.7c.5,1.3-.4,2.7-1.8,2.7h-.1Z"/>
      <path class="cls-3" d="M667.11,141.49l-54.1-133c-.3-.7-1-1.2-1.8-1.2h-21c-.8,0-1.5.5-1.8,1.2l-23,56.3c-1.2-.5-2.5-.8-3.8-.8-4.2,0-7.8,2.6-9.3,6.2h-35.5c-1.5-3.6-5.1-6.2-9.3-6.2V9.29c0-1.1-.9-2-2-2h-29.7c-.8,0-1.5.4-1.8,1.1l-28.1,59.4c-3.3,7.1-6,12.8-7.9,17.4-2,4.6-3.6,8.3-4.6,11.3-.3.7-.5,1.4-.8,2.1-.6,1.8-3.1,1.8-3.7,0-.2-.7-.5-1.4-.8-2.2-1.1-3-2.7-6.8-4.7-11.3-2.1-4.6-4.7-10.3-7.9-17.4l-27.9-59.4c-.3-.7-1-1.1-1.8-1.1h-30.8c-1.1,0-2,.9-2,2v54.7h-.2c-4.2,0-7.8,2.6-9.3,6.2h-20.2c-1.5-3.7-5.1-6.2-9.3-6.2s-.1,0-.2,0V9.29c0-1.1-.9-2-2-2h-23.5c-1.1,0-2,.9-2,2v54.8h-.4c-4.2,0-7.8,2.6-9.3,6.2h-20.7c-1.4-3.5-4.7-5.9-8.6-6.2V9.29c0-1.1-.9-2-2-2h-23.5c-1.1,0-2,.9-2,2v51.2c0,1.1-.9,2-2,2h-52.8c-1.1,0-2-.9-2-2V9.29c0-1.1-.9-2-2-2h-23.5c-1.1,0-2,.9-2,2v54.6c-3.7.2-6.9,2.3-8.5,5.5-13.6-3.6-24.6-18-30.1-26.5,1.8-1.8,3-4.3,3-7.1s-.3-2.7-.8-3.9l.6-.4c.9-.6,1.2-1.8.6-2.8-4.8-7.2-10.6-12.9-17.3-17.1-7.2-4.5-17.2-6.7-26.8-6.7s-18.1,1.7-25.3,5.1c-7.3,3.4-12.8,8.1-16.9,14.3-4.1,6.2-6.1,11.2-6.1,21.6s3.2,18.6,9.4,24.9c6.3,6.4,14.7,10.8,25.2,13.6,5.7,1.4,10.8,3,15.6,4.7,4.8,1.7,8.5,3.9,11.4,6.7,2.9,2.7,4.3,6.3,4.3,10.9s-1.8,8.4-5.5,11.3-9.1,4.3-15.1,4.3-11.6-1.6-17-4.8c-4.9-3-9-7.4-12.3-13.5-.5-1-1.8-1.3-2.8-.7L.91,116.19c-.9.6-1.2,1.8-.6,2.7,5.8,9.6,13,16.5,21.6,20.9,9,4.7,19,7,29.8,7h0c10.4,0,19.4-1.7,26.8-5.2,7.5-3.6,13.1-8.4,17.2-14.7s6.1-13.9,6.1-21.8-1.5-14.3-4.5-19.4-6.9-9.1-11.5-12.2c-4.8-3.1-9.5-5.5-14.6-7.3-5.1-1.7-9.5-3.3-13.6-4.6-6.1-1.8-11.1-3.9-15.4-6.2s-6.4-6.5-6.4-11,1.8-8.1,5.4-10.9c3.6-2.7,8.5-4.1,13.6-4.1s9.4,1.2,12.9,3.7c3.1,2.2,6.1,5.6,9.1,10.1.6.9,1.8,1.2,2.7.6l2.6-1.6c1.8,2.1,4.5,3.5,7.6,3.5s1,0,1.5-.2c5.9,9.3,18.4,25.7,34.7,29.8.7,4.7,4.6,8.2,9.4,8.5v60.3h25.4c1.1,0,2-.9,2-2v-53.2c0-1.1.9-2,2-2h52.8c1.1,0,2,.9,2,2v53.2c0,1.1.9,2,2,2h23.5c1.1,0,2-.9,2-2v-58.2c4.5-.3,8.1-3.5,9.1-7.7h19.7c1,4.4,5,7.8,9.8,7.8s.3,0,.4,0v60.1h25.4c1.1,0,2-.9,2-2v-58.2h.2c4.8,0,8.7-3.3,9.8-7.8h19.2c1,4.4,5,7.8,9.8,7.8s.1,0,.2,0v60.1h25c1.1,0,2-.9,2-2v-53.4c0-6.4,0-11.6-.2-16.1,0-4.5-.3-8.5-.6-12.2h0c-.2-2.3,2.8-3.1,3.8-1.1l40.1,83.7c.3.7,1,1.1,1.8,1.1h10.8c.8,0,1.5-.4,1.8-1.1l40.1-83.7c1-2,3.9-1.2,3.8,1h0c-.3,3.8-.5,7.9-.6,12.3-.2,4.5-.2,9.8-.2,16.1v53.4c0,1.1.9,2,2,2h22.9c1.1,0,2-.9,2-2v-58.2c4.8,0,8.7-3.3,9.8-7.8h34.5c.7,3.2,3,5.8,6,7l-24.8,60.8h28.2c.8,0,1.6-.5,1.9-1.3l8.5-23.4c.3-.8,1-1.3,1.9-1.3h54.3c.8,0,1.6.5,1.9,1.3l8.5,23.4c.3.8,1,1.3,1.9,1.3h25.4c1.4,0,2.4-1.4,1.8-2.7l.2.4h0ZM617.31,94.49h-33.3c-1.4,0-2.4-1.4-1.8-2.7l13.6-34.7c1.1-2.8,2.1-5.7,3-8.7.6-1.9,3.2-1.9,3.8,0,.9,2.9,1.9,5.8,3,8.7l13.6,34.7c.5,1.3-.4,2.7-1.8,2.7h-.1Z"/>
    </g>
  </g>
</svg>