<?xml version="1.0" encoding="UTF-8"?>
<svg id="Layer_2" xmlns="http://www.w3.org/2000/svg" version="1.1" xmlns:xlink="http://www.w3.org/1999/xlink" viewBox="0 0 290.7 290.7">
  <!-- Generator: Adobe Illustrator 30.1.0, SVG Export Plug-In . SVG Version: 2.1.1 Build 136)  -->
  <defs>
    <style>
      .st0 {
        fill: url(#linear-gradient2);
      }

      .st1 {
        fill: #edf1f2;
      }

      .st2 {
        fill: #a8fffe;
      }

      .st3 {
        fill: url(#linear-gradient1);
      }

      .st4 {
        fill: url(#linear-gradient8);
      }

      .st5 {
        fill: none;
      }

      .st6 {
        fill: url(#radial-gradient);
      }

      .st7 {
        fill: url(#linear-gradient7);
      }

      .st8 {
        fill: url(#linear-gradient4);
      }

      .st9 {
        fill: url(#linear-gradient5);
      }

      .st10 {
        fill: url(#linear-gradient3);
      }

      .st11 {
        fill: url(#linear-gradient6);
      }

      .st12 {
        fill: url(#linear-gradient);
      }
    </style>
    <linearGradient id="linear-gradient" x1="38.2" y1="164.9" x2="104.7" y2="156.1" gradientTransform="translate(0 292) scale(1 -1)" gradientUnits="userSpaceOnUse">
      <stop offset="0" stop-color="#52dcff"/>
      <stop offset="1" stop-color="#fff"/>
    </linearGradient>
    <linearGradient id="linear-gradient1" x1="170.8" y1="148.3" x2="192.5" y2="88.9" gradientTransform="translate(0 292) scale(1 -1)" gradientUnits="userSpaceOnUse">
      <stop offset="0" stop-color="#6bcfbb"/>
      <stop offset="1" stop-color="#21aeb5"/>
    </linearGradient>
    <radialGradient id="radial-gradient" cx="144.3" cy="473" fx="144.3" fy="473" r="47.6" gradientTransform="translate(-.3 466.7) scale(1 -.7)" gradientUnits="userSpaceOnUse">
      <stop offset="0" stop-color="#fc6dad"/>
      <stop offset="1" stop-color="#f01"/>
    </radialGradient>
    <linearGradient id="linear-gradient2" x1="-17.3" y1="349.8" x2="189.6" y2="161.8" gradientTransform="translate(0 292) scale(1 -1)" gradientUnits="userSpaceOnUse">
      <stop offset="0" stop-color="#2bbcff"/>
      <stop offset=".6" stop-color="#b1e6ff"/>
      <stop offset="1" stop-color="#fff"/>
    </linearGradient>
    <linearGradient id="linear-gradient3" x1="274.5" y1="78.2" x2="31.8" y2="103.5" gradientTransform="translate(0 292) scale(1 -1)" gradientUnits="userSpaceOnUse">
      <stop offset="0" stop-color="#6ab8a7"/>
      <stop offset="0" stop-color="#7dc3b8"/>
      <stop offset=".2" stop-color="#b5e6eb"/>
      <stop offset=".3" stop-color="#ccf4ff"/>
      <stop offset="1" stop-color="#a8ecff"/>
    </linearGradient>
    <linearGradient id="linear-gradient4" x1="273.1" y1="64.8" x2="30.3" y2="90.1" gradientTransform="translate(0 292) scale(1 -1)" gradientUnits="userSpaceOnUse">
      <stop offset="0" stop-color="#6ab8a7"/>
      <stop offset="0" stop-color="#7dc3b8"/>
      <stop offset=".2" stop-color="#b5e6eb"/>
      <stop offset=".3" stop-color="#ccf4ff"/>
      <stop offset="1" stop-color="#a8ecff"/>
    </linearGradient>
    <linearGradient id="linear-gradient5" x1="86.7" y1="141" x2="181.6" y2="-60.6" gradientTransform="translate(0 292) scale(1 -1)" gradientUnits="userSpaceOnUse">
      <stop offset="0" stop-color="#d9f7ff"/>
      <stop offset="1" stop-color="#a8aaff"/>
    </linearGradient>
    <linearGradient id="linear-gradient6" x1="114.3" y1="243.9" x2="152.6" y2="-311.8" gradientTransform="translate(0 292) scale(1 -1)" gradientUnits="userSpaceOnUse">
      <stop offset="0" stop-color="#fff"/>
      <stop offset="1" stop-color="#a8ecff"/>
    </linearGradient>
    <linearGradient id="linear-gradient7" x1="271.4" y1="48.3" x2="28.6" y2="73.6" gradientTransform="translate(0 292) scale(1 -1)" gradientUnits="userSpaceOnUse">
      <stop offset="0" stop-color="#6ab8a7"/>
      <stop offset="0" stop-color="#7dc3b8"/>
      <stop offset=".2" stop-color="#b5e6eb"/>
      <stop offset=".3" stop-color="#ccf4ff"/>
      <stop offset="1" stop-color="#a8ecff"/>
    </linearGradient>
    <linearGradient id="linear-gradient8" x1="190.8" y1="133.6" x2="206.9" y2="-100.1" gradientTransform="translate(0 292) scale(1 -1)" gradientUnits="userSpaceOnUse">
      <stop offset="0" stop-color="#fff"/>
      <stop offset="1" stop-color="#a8ecff"/>
    </linearGradient>
  </defs>
  <g id="Layer_1-2">
    <g>
      <path class="st2" d="M241.3,101.8v-26.7c0-14.2-11.5-25.7-25.7-25.7H75.1c-11.3,0-21,7.3-24.4,17.5,17.2-5.5,34-8.8,50.2-9.7,52.8-3.2,98,17.2,140.5,44.7h0Z"/>
      <path class="st2" d="M101.6,171c-5.2-17.9-.9-39,13.5-51.2,21.7-18.4,59.8-11.4,73.8,13.2.2,0,.3-.1.5-.1-4.4-29.1-24.7-55.3-51.9-66.8-27.7-11.7-61.4-7.7-85.6,10.2-.8.6-1.7,1.3-2.5,1.9v127.4c13.4-9.5,26.9-19,40.7-27.6,3.8-2.4,7.7-4.7,11.6-6.9h0Z"/>
      <path class="st12" d="M101.6,171c-5.2-17.9-.9-39,13.5-51.2,21.7-18.4,59.8-11.4,73.8,13.2.2,0,.3-.1.5-.1-4.4-29.1-24.7-55.3-51.9-66.8-27.7-11.7-61.4-7.7-85.6,10.2-.8.6-1.7,1.3-2.5,1.9v127.4c13.4-9.5,26.9-19,40.7-27.6,3.8-2.4,7.7-4.7,11.6-6.9h0Z"/>
      <path class="st1" d="M189.5,134.3c0-.5-.2-.9-.2-1.4-.2,0-.3.1-.5.1.2.4.5.8.7,1.2Z"/>
      <path class="st3" d="M189.5,134.3c-.2-.4-.5-.8-.7-1.2-30.3,9.6-59.5,22-87.3,38,2.8,9.5,8.2,18.1,16.3,24.1,20.4,14.9,49.2,11.7,72.9,2.7,17.2-6.5,33.5-15.7,50.6-22.3v-56.1c-17.6,3.7-35,8.1-52,13.5,0,.5.2.9.2,1.4h0Z"/>
      <path class="st2" d="M115.1,119.8c-14.4,12.2-18.8,33.3-13.5,51.2,27.7-16,57-28.4,87.3-38-13.9-24.6-52-31.7-73.8-13.2h0Z"/>
      <path class="st6" d="M115.1,119.8c-14.4,12.2-18.8,33.3-13.5,51.2,27.7-16,57-28.4,87.3-38-13.9-24.6-52-31.7-73.8-13.2h0Z"/>
      <path class="st2" d="M49.3,78.2c.8-.7,1.6-1.3,2.5-1.9,24.1-17.8,57.9-21.8,85.6-10.2,27.2,11.5,47.6,37.7,51.9,66.8,17.1-5.4,34.4-9.8,52-13.5v-17.6c-42.5-27.4-87.6-47.8-140.5-44.7-16.2,1-33,4.3-50.2,9.7-.9,2.6-1.3,5.3-1.3,8.2v3.2h0Z"/>
      <path class="st0" d="M49.3,78.2c.8-.7,1.6-1.3,2.5-1.9,24.1-17.8,57.9-21.8,85.6-10.2,27.2,11.5,47.6,37.7,51.9,66.8,17.1-5.4,34.4-9.8,52-13.5v-17.6c-42.5-27.4-87.6-47.8-140.5-44.7-16.2,1-33,4.3-50.2,9.7-.9,2.6-1.3,5.3-1.3,8.2v3.2h0Z"/>
      <path class="st10" d="M117.9,195.1c-8.1-5.9-13.5-14.6-16.3-24.1-3.9,2.2-7.7,4.5-11.6,6.9-13.8,8.6-27.2,18.2-40.7,27.6v1.6c13.3-2.4,25.8-7.1,39.3-8.7,23.6-2.9,47.7,3.6,67.7,13.4,11.3,5.5,21.5,11.9,31.6,18.6h0c5.6,3.6,11.1,7.4,16.6,11h11c14.2,0,25.7-11.5,25.7-25.7v-40.1c-17.1,6.6-33.4,15.8-50.6,22.3-23.7,9-52.4,12.2-72.9-2.7h0Z"/>
      <path class="st8" d="M156.3,212c11.1,5.4,21.3,11.8,31.3,18.3h.4c-10.1-6.6-20.4-13.1-31.6-18.6-20-9.7-44.1-16.3-67.7-13.4-13.5,1.7-26,6.3-39.3,8.7v.2c13.3-2.4,25.8-7.1,39.3-8.7,23.6-2.9,47.7,3.6,67.7,13.4h0Z"/>
      <path class="st9" d="M156.3,212c11.1,5.4,21.3,11.8,31.3,18.3h.4c-10.1-6.6-20.4-13.1-31.6-18.6-20-9.7-44.1-16.3-67.7-13.4-13.5,1.7-26,6.3-39.3,8.7v.2c13.3-2.4,25.8-7.1,39.3-8.7,23.6-2.9,47.7,3.6,67.7,13.4h0Z"/>
      <path class="st11" d="M188,230.6c-.1,0-.2-.2-.4-.2-10-6.6-20.1-12.9-31.3-18.3-20-9.7-44.1-16.3-67.7-13.4-13.5,1.7-26,6.3-39.3,8.7v8.2c0,5.5,1.7,10.6,4.6,14.7,4.7,6.6,12.4,11,21.1,11h129.2c-5.4-3.6-10.8-7.2-16.2-10.7h0Z"/>
      <path class="st7" d="M187.6,230.3c.1,0,.2.2.4.2,5.4,3.6,10.8,7.2,16.2,10.7h.4c-5.6-3.6-11.1-7.3-16.6-11h-.4Z"/>
      <path class="st4" d="M187.6,230.3c.1,0,.2.2.4.2,5.4,3.6,10.8,7.2,16.2,10.7h.4c-5.6-3.6-11.1-7.3-16.6-11h-.4Z"/>
    </g>
    <rect class="st5" width="290.7" height="290.7"/>
  </g>
</svg>