<?xml version="1.0" encoding="UTF-8"?>
<svg id="Layer_2" xmlns="http://www.w3.org/2000/svg" version="1.1" xmlns:xlink="http://www.w3.org/1999/xlink" viewBox="0 0 989.4 152.9">
  <!-- Generator: Adobe Illustrator 30.1.0, SVG Export Plug-In . SVG Version: 2.1.1 Build 136)  -->
  <defs>
    <style>
      .st0 {
        fill: url(#linear-gradient2);
      }

      .st1 {
        fill: #edf1f2;
      }

      .st2 {
        fill: #fff;
      }

      .st3 {
        fill: url(#linear-gradient1);
      }

      .st4 {
        fill: #85daff;
      }

      .st5 {
        fill: url(#radial-gradient);
      }

      .st6 {
        fill: #6ab8a7;
      }

      .st7 {
        fill: #408b91;
      }

      .st8 {
        fill: url(#linear-gradient3);
      }

      .st9 {
        fill: url(#linear-gradient);
      }
    </style>
    <linearGradient id="linear-gradient" x1="726.1" y1="-508.4" x2="790.4" y2="-543.9" gradientTransform="translate(0 -452) scale(1 -1)" gradientUnits="userSpaceOnUse">
      <stop offset="0" stop-color="#52dcff"/>
      <stop offset="1" stop-color="#edf2f2"/>
    </linearGradient>
    <linearGradient id="linear-gradient1" x1="723.1" y1="-591.1" x2="1017.7" y2="-565.7" gradientTransform="translate(0 -452) scale(1 -1)" gradientUnits="userSpaceOnUse">
      <stop offset="0" stop-color="#6ab8a7"/>
      <stop offset=".2" stop-color="#d8f2f8"/>
      <stop offset="1" stop-color="#fff"/>
    </linearGradient>
    <radialGradient id="radial-gradient" cx="826.7" cy="-1352.5" fx="826.7" fy="-1352.5" r="33.8" gradientTransform="translate(0 -860.2) scale(1 -.7)" gradientUnits="userSpaceOnUse">
      <stop offset="0" stop-color="#fc6dad"/>
      <stop offset="1" stop-color="#f01"/>
    </radialGradient>
    <linearGradient id="linear-gradient2" x1="730.3" y1="-502" x2="910.3" y2="-502" gradientTransform="translate(0 -452) scale(1 -1)" gradientUnits="userSpaceOnUse">
      <stop offset="0" stop-color="#2bbcff"/>
      <stop offset="1" stop-color="#fff"/>
    </linearGradient>
    <linearGradient id="linear-gradient3" x1="875.2" y1="-476.7" x2="987.7" y2="-476.7" gradientTransform="translate(0 -452) scale(1 -1)" gradientUnits="userSpaceOnUse">
      <stop offset="0" stop-color="#ebfbff"/>
      <stop offset="1" stop-color="#b2dcf7"/>
    </linearGradient>
  </defs>
  <g id="Layer_1-2">
    <g>
      <path class="st9" d="M796.5,104.1c-3.7-12.7-.6-27.7,9.6-36.4,15.4-13.1,42.5-8.1,52.4,9.4h.3c-3.1-20.7-17.5-39.3-36.9-47.4-19.6-8.3-43.6-5.4-60.8,7.2-12.5,9.2-20.9,22.6-30.9,34.4v56.1c0,6.5,3.3,12.3,8.3,15.8,16.8-10.9,32.9-23.4,49.8-34,2.7-1.7,5.5-3.3,8.2-4.9h0v-.2Z"/>
      <path class="st1" d="M858.8,77h-.3c.2.3.3.6.5.9,0-.3,0-.7-.2-1h0Z"/>
      <path class="st3" d="M909.8,102.9c-17.6,3.8-33.1,13.8-50,20.2-16.8,6.4-37.2,8.7-51.7-1.9-5.8-4.2-9.6-10.4-11.6-17.1-2.8,1.6-5.5,3.2-8.2,4.9-16.9,10.6-33,23.1-49.8,34,3.1,2.2,6.9,3.5,11,3.5h219c10.6,0,19.2-8.6,19.2-19.2v-9c-5.4-3-10.8-6.3-16.1-9.7-20.6-5.8-41.2-10.1-61.8-5.6h0Z"/>
      <path class="st1" d="M987.7,118.2v-5c-5.4-1.6-10.7-3.1-16.1-4.6,5.3,3.4,10.6,6.6,16.1,9.7h0Z"/>
      <path class="st6" d="M859,78c-.2-.3-.3-.6-.5-.9-21.5,6.8-42.3,15.6-62,27,2,6.8,5.8,12.9,11.6,17.1,14.5,10.6,34.9,8.3,51.7,1.9s32.4-16.4,50-20.2c20.7-4.5,41.2-.2,61.8,5.6-6.2-4-12.4-8.2-18.4-12.6-14.3-10.3-28.5-21.2-43-31.3-17.4,3-34.6,7.1-51.4,12.3,0,.3,0,.7.2,1h0Z"/>
      <path class="st5" d="M806.1,67.7c-10.2,8.7-13.3,23.7-9.6,36.4,19.7-11.4,40.5-20.2,62-27-9.9-17.5-36.9-22.5-52.4-9.4h0Z"/>
      <path class="st0" d="M761.2,36.8c17.1-12.7,41.1-15.5,60.8-7.2,19.3,8.2,33.8,26.8,36.9,47.4,16.8-5.3,34-9.3,51.4-12.3-34.5-24.1-70.6-44.1-114.2-41.5-20.8,1.3-43,7.9-65.8,19.4v28.6c10-11.8,18.5-25.2,30.9-34.4h0Z"/>
      <path class="st4" d="M935.7,42.2c-35.3-1.1-66.5-19.5-98.6-35.2h-87.6c-10.6,0-19.2,8.6-19.2,19.2v16.3c22.7-11.5,44.9-18.1,65.8-19.4,43.6-2.6,79.7,17.4,114.2,41.5,12.1-2.1,24.2-3.7,36.4-4.9,13.6-1.3,27.3-2.1,41.1-2.6v-27c-15.9,8.3-34,12.6-52,12h-.1Z"/>
      <path class="st8" d="M987.7,30.3v-4c0-10.6-8.6-19.2-19.2-19.2h-131.4c32.1,15.7,63.3,34.1,98.6,35.2,18,.6,36-3.7,52-12h0Z"/>
      <path class="st7" d="M910.2,64.7c14.5,10.2,28.7,21,43,31.3,6,4.3,12.2,8.5,18.4,12.6,5.3,1.5,10.7,3.1,16.1,4.6v-55.9c-13.8.4-27.5,1.2-41.1,2.6-12.2,1.2-24.4,2.8-36.4,4.9h0Z"/>
    </g>
  </g>
  <path class="st2" d="M673.5,143.4l-54.1-133c-.3-.7-1-1.2-1.8-1.2h-21c-.8,0-1.5.5-1.8,1.2l-23,56.3c-1.2-.5-2.5-.8-3.8-.8-4.2,0-7.8,2.6-9.3,6.2h-35.5c-1.5-3.6-5.1-6.2-9.3-6.2V11.2c0-1.1-.9-2-2-2h-29.7c-.8,0-1.5.4-1.8,1.1l-28.1,59.4c-3.3,7.1-6,12.8-7.9,17.4-2,4.6-3.6,8.3-4.6,11.3-.3.7-.5,1.4-.8,2.1-.6,1.8-3.1,1.8-3.7,0-.2-.7-.5-1.4-.8-2.2-1.1-3-2.7-6.8-4.7-11.3-2.1-4.6-4.7-10.3-7.9-17.4l-27.9-59.4c-.3-.7-1-1.1-1.8-1.1h-30.8c-1.1,0-2,.9-2,2v54.7h-.2c-4.2,0-7.8,2.6-9.3,6.2h-20.2c-1.5-3.7-5.1-6.2-9.3-6.2s-.1,0-.2,0V11.2c0-1.1-.9-2-2-2h-23.5c-1.1,0-2,.9-2,2v54.8h-.4c-4.2,0-7.8,2.6-9.3,6.2h-20.7c-1.4-3.5-4.7-5.9-8.6-6.2V11.2c0-1.1-.9-2-2-2h-23.5c-1.1,0-2,.9-2,2v51.2c0,1.1-.9,2-2,2h-52.8c-1.1,0-2-.9-2-2V11.2c0-1.1-.9-2-2-2h-23.5c-1.1,0-2,.9-2,2v54.6c-3.7.2-6.9,2.3-8.5,5.5-13.6-3.6-24.6-18-30.1-26.5,1.8-1.8,3-4.3,3-7.1s-.3-2.7-.8-3.9l.6-.4c.9-.6,1.2-1.8.6-2.8-4.8-7.2-10.6-12.9-17.3-17.1-7.2-4.5-17.2-6.7-26.8-6.7s-18.1,1.7-25.3,5.1c-7.3,3.4-12.8,8.1-16.9,14.3-4.1,6.2-6.1,11.2-6.1,21.6s3.2,18.6,9.4,24.9c6.3,6.4,14.7,10.8,25.2,13.6,5.7,1.4,10.8,3,15.6,4.7,4.8,1.7,8.5,3.9,11.4,6.7,2.9,2.7,4.3,6.3,4.3,10.9s-1.8,8.4-5.5,11.3-9.1,4.3-15.1,4.3-11.6-1.6-17-4.8c-4.9-3-9-7.4-12.3-13.5-.5-1-1.8-1.3-2.8-.7l-20.2,12.9c-.9.6-1.2,1.8-.6,2.7,5.8,9.6,13,16.5,21.6,20.9,9,4.7,19,7,29.8,7h0c10.4,0,19.4-1.7,26.8-5.2,7.5-3.6,13.1-8.4,17.2-14.7s6.1-13.9,6.1-21.8-1.5-14.3-4.5-19.4-6.9-9.1-11.5-12.2c-4.8-3.1-9.5-5.5-14.6-7.3-5.1-1.7-9.5-3.3-13.6-4.6-6.1-1.8-11.1-3.9-15.4-6.2s-6.4-6.5-6.4-11,1.8-8.1,5.4-10.9c3.6-2.7,8.5-4.1,13.6-4.1s9.4,1.2,12.9,3.7c3.1,2.2,6.1,5.6,9.1,10.1.6.9,1.8,1.2,2.7.6l2.6-1.6c1.8,2.1,4.5,3.5,7.6,3.5s1,0,1.5-.2c5.9,9.3,18.4,25.7,34.7,29.8.7,4.7,4.6,8.2,9.4,8.5v60.3h25.4c1.1,0,2-.9,2-2v-53.2c0-1.1.9-2,2-2h52.8c1.1,0,2,.9,2,2v53.2c0,1.1.9,2,2,2h23.5c1.1,0,2-.9,2-2v-58.2c4.5-.3,8.1-3.5,9.1-7.7h19.7c1,4.4,5,7.8,9.8,7.8s.3,0,.4,0v60.1h25.4c1.1,0,2-.9,2-2v-58.2h.2c4.8,0,8.7-3.3,9.8-7.8h19.2c1,4.4,5,7.8,9.8,7.8s.1,0,.2,0v60.1h25c1.1,0,2-.9,2-2v-53.4c0-6.4,0-11.6-.2-16.1,0-4.5-.3-8.5-.6-12.2h0c-.2-2.3,2.8-3.1,3.8-1.1l40.1,83.7c.3.7,1,1.1,1.8,1.1h10.8c.8,0,1.5-.4,1.8-1.1l40.1-83.7c1-2,3.9-1.2,3.8,1h0c-.3,3.8-.5,7.9-.6,12.3-.2,4.5-.2,9.8-.2,16.1v53.4c0,1.1.9,2,2,2h22.9c1.1,0,2-.9,2-2v-58.2c4.8,0,8.7-3.3,9.8-7.8h34.5c.7,3.2,3,5.8,6,7l-24.8,60.8h28.2c.8,0,1.6-.5,1.9-1.3l8.5-23.4c.3-.8,1-1.3,1.9-1.3h54.3c.8,0,1.6.5,1.9,1.3l8.5,23.4c.3.8,1,1.3,1.9,1.3h25.4c1.4,0,2.4-1.4,1.8-2.7l.2.4ZM623.7,96.4h-33.3c-1.4,0-2.4-1.4-1.8-2.7l13.6-34.7c1.1-2.8,2.1-5.7,3-8.7.6-1.9,3.2-1.9,3.8,0,.9,2.9,1.9,5.8,3,8.7l13.6,34.7c.5,1.3-.4,2.7-1.8,2.7h0Z"/>
</svg>