<?xml version="1.0" encoding="UTF-8"?>
<svg id="Layer_2" xmlns="http://www.w3.org/2000/svg" version="1.1" xmlns:xlink="http://www.w3.org/1999/xlink" viewBox="0 0 335.7 379.2">
  <!-- Generator: Adobe Illustrator 30.1.0, SVG Export Plug-In . SVG Version: 2.1.1 Build 136)  -->
  <defs>
    <style>
      .st0 {
        fill: url(#linear-gradient2);
      }

      .st1 {
        fill: #edf1f2;
      }

      .st2 {
        fill: #fff;
      }

      .st3 {
        fill: #a8fffe;
      }

      .st4 {
        fill: url(#linear-gradient1);
      }

      .st5 {
        fill: url(#linear-gradient8);
      }

      .st6 {
        fill: url(#radial-gradient);
      }

      .st7 {
        fill: url(#linear-gradient7);
      }

      .st8 {
        fill: url(#linear-gradient4);
      }

      .st9 {
        fill: url(#linear-gradient5);
      }

      .st10 {
        fill: url(#linear-gradient3);
      }

      .st11 {
        fill: url(#linear-gradient6);
      }

      .st12 {
        fill: url(#linear-gradient);
      }
    </style>
    <linearGradient id="linear-gradient" x1="37.4" y1="513.9" x2="120.4" y2="524.8" gradientTransform="translate(0 -386)" gradientUnits="userSpaceOnUse">
      <stop offset="0" stop-color="#52dcff"/>
      <stop offset="1" stop-color="#fff"/>
    </linearGradient>
    <linearGradient id="linear-gradient1" x1="202.8" y1="534.6" x2="229.9" y2="608.7" gradientTransform="translate(0 -386)" gradientUnits="userSpaceOnUse">
      <stop offset="0" stop-color="#6bcfbb"/>
      <stop offset="1" stop-color="#21aeb5"/>
    </linearGradient>
    <radialGradient id="radial-gradient" cx="171.2" cy="1133.8" fx="171.2" fy="1133.8" r="59.4" gradientTransform="translate(-1.8 -647) scale(1 .7)" gradientUnits="userSpaceOnUse">
      <stop offset="0" stop-color="#fc6dad"/>
      <stop offset="1" stop-color="#f01"/>
    </radialGradient>
    <linearGradient id="linear-gradient2" x1="-31.9" y1="283.4" x2="226.1" y2="517.8" gradientTransform="translate(0 -386)" gradientUnits="userSpaceOnUse">
      <stop offset="0" stop-color="#2bbcff"/>
      <stop offset=".6" stop-color="#b1e6ff"/>
      <stop offset="1" stop-color="#fff"/>
    </linearGradient>
    <linearGradient id="linear-gradient3" x1="332.2" y1="621.9" x2="29.4" y2="590.3" gradientTransform="translate(0 -386)" gradientUnits="userSpaceOnUse">
      <stop offset="0" stop-color="#6ab8a7"/>
      <stop offset="0" stop-color="#7dc3b8"/>
      <stop offset=".2" stop-color="#b5e6eb"/>
      <stop offset=".3" stop-color="#ccf4ff"/>
      <stop offset="1" stop-color="#a8ecff"/>
    </linearGradient>
    <linearGradient id="linear-gradient4" x1="330.5" y1="638.8" x2="27.6" y2="607.2" gradientTransform="translate(0 -386)" gradientUnits="userSpaceOnUse">
      <stop offset="0" stop-color="#6ab8a7"/>
      <stop offset="0" stop-color="#7dc3b8"/>
      <stop offset=".2" stop-color="#b5e6eb"/>
      <stop offset=".3" stop-color="#ccf4ff"/>
      <stop offset="1" stop-color="#a8ecff"/>
    </linearGradient>
    <linearGradient id="linear-gradient5" x1="97.9" y1="543.6" x2="216.3" y2="795.2" gradientTransform="translate(0 -386)" gradientUnits="userSpaceOnUse">
      <stop offset="0" stop-color="#d9f7ff"/>
      <stop offset="1" stop-color="#a8aaff"/>
    </linearGradient>
    <linearGradient id="linear-gradient6" x1="132.3" y1="415.3" x2="180" y2="1108.5" gradientTransform="translate(0 -386)" gradientUnits="userSpaceOnUse">
      <stop offset="0" stop-color="#fff"/>
      <stop offset="1" stop-color="#a8ecff"/>
    </linearGradient>
    <linearGradient id="linear-gradient7" x1="328.3" y1="659.2" x2="25.5" y2="627.6" gradientTransform="translate(0 -386)" gradientUnits="userSpaceOnUse">
      <stop offset="0" stop-color="#6ab8a7"/>
      <stop offset="0" stop-color="#7dc3b8"/>
      <stop offset=".2" stop-color="#b5e6eb"/>
      <stop offset=".3" stop-color="#ccf4ff"/>
      <stop offset="1" stop-color="#a8ecff"/>
    </linearGradient>
    <linearGradient id="linear-gradient8" x1="227.7" y1="552.9" x2="247.8" y2="844.4" gradientTransform="translate(0 -386)" gradientUnits="userSpaceOnUse">
      <stop offset="0" stop-color="#fff"/>
      <stop offset="1" stop-color="#a8ecff"/>
    </linearGradient>
  </defs>
  <g id="Layer_1-2">
    <g>
      <path class="st3" d="M290.8,96.3v-33.3c0-17.7-14.4-32.1-32.1-32.1H83.4c-14.1,0-26.1,9.1-30.4,21.9,21.4-6.8,42.4-10.9,62.6-12.2,65.9-3.9,122.2,21.5,175.2,55.7Z"/>
      <path class="st3" d="M116.4,182.7c-6.5-22.4-1.1-48.6,16.9-63.9,27.1-23,74.6-14.2,92,16.5.2,0,.4-.1.6-.2-5.4-36.2-30.8-69-64.8-83.3-34.5-14.5-76.6-9.5-106.7,12.7-1.1.8-2.1,1.6-3.1,2.4v158.9c16.8-11.8,33.5-23.7,50.7-34.5,4.8-3,9.6-5.8,14.4-8.6h0Z"/>
      <path class="st12" d="M116.4,182.7c-6.5-22.4-1.1-48.6,16.9-63.9,27.1-23,74.6-14.2,92,16.5.2,0,.4-.1.6-.2-5.4-36.2-30.8-69-64.8-83.3-34.5-14.5-76.6-9.5-106.7,12.7-1.1.8-2.1,1.6-3.1,2.4v158.9c16.8-11.8,33.5-23.7,50.7-34.5,4.8-3,9.6-5.8,14.4-8.6h0Z"/>
      <path class="st1" d="M226.2,136.8c0-.6-.2-1.2-.3-1.7-.2,0-.4.1-.6.2.3.5.6,1,.9,1.6h0Z"/>
      <path class="st4" d="M226.2,136.8c-.3-.5-.6-1-.9-1.6-37.7,11.9-74.3,27.4-108.9,47.4,3.5,11.9,10.2,22.6,20.3,30,25.5,18.6,61.3,14.6,90.9,3.4,21.5-8.1,41.8-19.6,63.1-27.8v-70c-21.9,4.6-43.6,10.1-64.9,16.8,0,.6.2,1.2.3,1.7h0Z"/>
      <path class="st3" d="M133.3,118.8c-18,15.3-23.4,41.5-16.9,63.9,34.6-20,71.1-35.5,108.9-47.4-17.4-30.7-64.9-39.5-92-16.5h0Z"/>
      <path class="st6" d="M133.3,118.8c-18,15.3-23.4,41.5-16.9,63.9,34.6-20,71.1-35.5,108.9-47.4-17.4-30.7-64.9-39.5-92-16.5h0Z"/>
      <path class="st3" d="M51.3,66.9c1-.8,2-1.6,3.1-2.4,30.1-22.2,72.2-27.2,106.7-12.7,34,14.3,59.3,47,64.8,83.3,21.3-6.7,43-12.3,64.9-16.8v-21.9c-53-34.2-109.3-59.7-175.2-55.7-20.2,1.2-41.2,5.3-62.6,12.2-1.1,3.2-1.7,6.7-1.7,10.2v3.9h0Z"/>
      <path class="st0" d="M51.3,66.9c1-.8,2-1.6,3.1-2.4,30.1-22.2,72.2-27.2,106.7-12.7,34,14.3,59.3,47,64.8,83.3,21.3-6.7,43-12.3,64.9-16.8v-21.9c-53-34.2-109.3-59.7-175.2-55.7-20.2,1.2-41.2,5.3-62.6,12.2-1.1,3.2-1.7,6.7-1.7,10.2v3.9h0Z"/>
      <path class="st10" d="M136.8,212.7c-10.1-7.4-16.9-18.2-20.3-30-4.8,2.8-9.6,5.7-14.4,8.6-17.2,10.7-34,22.7-50.7,34.5v2c16.6-3,32.2-8.8,49.1-10.9,29.4-3.6,59.5,4.5,84.5,16.6,14.1,6.8,26.9,14.9,39.5,23.1h0c6.9,4.5,13.8,9.2,20.7,13.7h13.7c17.7,0,32.1-14.4,32.1-32.1v-50c-21.3,8.2-41.6,19.7-63.1,27.8-29.6,11.2-65.4,15.2-90.9-3.4h-.2Z"/>
      <path class="st8" d="M184.8,233.8c13.9,6.7,26.5,14.7,39,22.8h.5c-12.6-8.3-25.4-16.3-39.5-23.1-25-12.1-55-20.3-84.5-16.6-16.9,2.1-32.5,7.9-49.1,10.9v.3c16.6-3,32.2-8.8,49-10.9,29.4-3.6,59.5,4.5,84.5,16.6h0Z"/>
      <path class="st9" d="M184.8,233.8c13.9,6.7,26.5,14.7,39,22.8h.5c-12.6-8.3-25.4-16.3-39.5-23.1-25-12.1-55-20.3-84.5-16.6-16.9,2.1-32.5,7.9-49.1,10.9v.3c16.6-3,32.2-8.8,49-10.9,29.4-3.6,59.5,4.5,84.5,16.6h0Z"/>
      <path class="st11" d="M224.2,257c-.2-.1-.3-.2-.5-.3-12.4-8.2-25.1-16.1-39-22.8-25-12.1-55-20.3-84.5-16.6-16.8,2.1-32.4,7.9-49,10.9v10.2c0,6.8,2.1,13.2,5.8,18.4,5.8,8.3,15.4,13.7,26.3,13.7h161.1c-6.8-4.4-13.5-8.9-20.3-13.4h.1Z"/>
      <path class="st7" d="M223.7,256.6c.2.1.3.2.5.3,6.8,4.4,13.5,9,20.3,13.4h.5c-6.9-4.5-13.8-9.1-20.7-13.7h-.6Z"/>
      <path class="st5" d="M223.7,256.6c.2.1.3.2.5.3,6.8,4.4,13.5,9,20.3,13.4h.5c-6.9-4.5-13.8-9.1-20.7-13.7h-.6Z"/>
    </g>
  </g>
  <path class="st2" d="M293.5,344.3l-19.9-48.9c-.1-.3-.4-.5-.7-.5h-7.7c-.3,0-.6.2-.7.5l-8.5,20.7c-.4-.2-.9-.3-1.4-.3-1.5,0-2.9.9-3.4,2.3h-13c-.6-1.3-1.9-2.3-3.4-2.3v-20.1c0-.4-.3-.7-.7-.7h-10.9c-.3,0-.5.2-.7.4l-10.3,21.8c-1.2,2.6-2.2,4.7-2.9,6.4-.7,1.7-1.3,3.1-1.7,4.2,0,.3-.2.5-.3.8-.2.7-1.1.7-1.4,0,0-.3-.2-.5-.3-.8-.4-1.1-1-2.5-1.7-4.2-.8-1.7-1.7-3.8-2.9-6.4l-10.3-21.8c-.1-.3-.4-.4-.7-.4h-11.3c-.4,0-.7.3-.7.7v20.1h0c-1.5,0-2.9.9-3.4,2.3h-7.4c-.6-1.3-1.9-2.3-3.4-2.3s0,0,0,0v-20.1c0-.4-.3-.7-.7-.7h-8.6c-.4,0-.7.3-.7.7v20.1h-.2c-1.5,0-2.9.9-3.4,2.3h-7.6c-.5-1.3-1.7-2.2-3.2-2.3v-20.1c0-.4-.3-.7-.7-.7h-8.6c-.4,0-.7.3-.7.7v18.8c0,.4-.3.7-.7.7h-19.4c-.4,0-.7-.3-.7-.7v-18.8c0-.4-.3-.7-.7-.7h-8.6c-.4,0-.7.3-.7.7v20.1c-1.4,0-2.5.9-3.1,2-5-1.3-9.1-6.6-11.1-9.7.7-.7,1.1-1.6,1.1-2.6s0-1-.3-1.4h.2c.3-.4.5-.8.2-1.2-1.8-2.7-3.9-4.8-6.4-6.3-2.6-1.6-6.3-2.4-9.9-2.4s-6.6.6-9.3,1.9-4.7,3-6.2,5.3-2.2,4.1-2.2,7.9,1.2,6.8,3.5,9.2c2.3,2.3,5.4,4,9.3,5,2.1.5,4,1.1,5.7,1.7,1.8.6,3.1,1.4,4.2,2.4s1.6,2.3,1.6,4-.7,3.1-2,4.2-3.4,1.6-5.6,1.6-4.3-.6-6.2-1.8c-1.8-1.1-3.3-2.7-4.5-5-.2-.4-.7-.5-1-.3l-7.4,4.7c-.3.2-.4.7-.2,1,2.1,3.5,4.8,6.1,7.9,7.7,3.3,1.7,7,2.6,11,2.6h0c3.8,0,7.1-.6,9.9-1.9,2.7-1.3,4.8-3.1,6.3-5.4s2.2-5.1,2.2-8-.5-5.3-1.6-7.1c-1.1-1.9-2.5-3.4-4.2-4.5-1.8-1.1-3.5-2-5.4-2.7-1.9-.6-3.5-1.2-5-1.7-2.2-.7-4.1-1.4-5.7-2.3s-2.3-2.4-2.3-4.1.7-3,2-4c1.3-1,3.1-1.5,5-1.5s3.5.4,4.7,1.4c1.1.8,2.3,2,3.3,3.7.2.3.7.4,1,.2l1-.6c.7.8,1.7,1.3,2.8,1.3s.4,0,.6,0c2.2,3.4,6.8,9.5,12.8,10.9.3,1.7,1.7,3,3.5,3.1v22.2h9.4c.4,0,.7-.3.7-.7v-19.6c0-.4.3-.7.7-.7h19.4c.4,0,.7.3.7.7v19.6c0,.4.3.7.7.7h8.6c.4,0,.7-.3.7-.7v-21.4c1.6-.1,3-1.3,3.4-2.8h7.3c.4,1.6,1.8,2.9,3.6,2.9s.1,0,.2,0v22.1h9.4c.4,0,.7-.3.7-.7v-21.4h0c1.7,0,3.2-1.2,3.6-2.9h7.1c.4,1.6,1.8,2.9,3.6,2.9s0,0,0,0v22.1h9.1c.4,0,.7-.3.7-.7v-25.5c0-1.6-.1-3.1-.2-4.5h0c0-.8,1-1.1,1.4-.4l14.8,30.8c.1.3.4.4.7.4h4c.3,0,.5-.2.7-.4l14.8-30.8c.3-.7,1.4-.4,1.4.4h0c-.1,1.4-.2,2.9-.2,4.5v25.5c0,.4.3.7.7.7h8.4c.4,0,.7-.3.7-.7v-21.4c1.7,0,3.2-1.2,3.6-2.9h12.7c.3,1.2,1.1,2.1,2.2,2.6l-9.1,22.4h10.4c.3,0,.6-.2.7-.5l3.1-8.6c.1-.3.4-.5.7-.5h20c.3,0,.6.2.7.5l3.1,8.6c.1.3.4.5.7.5h9.3c.5,0,.9-.5.7-1h-.9ZM275.1,327h-12.3c-.5,0-.9-.5-.7-1l5-12.7c.4-1,.8-2.1,1.1-3.2.2-.7,1.2-.7,1.4,0,.3,1.1.7,2.1,1.1,3.2l5,12.7c.2.5-.2,1-.7,1h.1Z"/>
</svg>