<?xml version="1.0" encoding="UTF-8"?>
<svg id="Layer_2" xmlns="http://www.w3.org/2000/svg" version="1.1" viewBox="0 0 75 150">
  <!-- Generator: Adobe Illustrator 30.1.0, SVG Export Plug-In . SVG Version: 2.1.1 Build 136)  -->
  <defs>
    <style>
      .st0 {
        fill: #4d4d4d;
      }

      .st1 {
        fill: #fff;
      }

      .st2 {
        fill: #333;
      }

      .st3 {
        fill: #b3b3b3;
      }

      .st4 {
        fill: #ed1c24;
      }
    </style>
  </defs>
  <g id="Layer_1-2">
    <g>
      <rect y="45.3" width="75" height="65.3"/>
      <g>
        <rect class="st3" y="45.3" width="75" height="19.6"/>
        <path class="st2" d="M0,64.3h75v4.7c0,2.6-2.1,4.8-4.8,4.8H4.8c-2.6,0-4.8-2.1-4.8-4.8v-4.7h0Z"/>
        <path class="st0" d="M4.8,35.9h65.5c2.6,0,4.8,2.1,4.8,4.8v4.7H0v-4.7c0-2.6,2.1-4.8,4.8-4.8Z"/>
        <rect class="st4" x="19.9" y="50.8" width="35.5" height="7.4"/>
      </g>
    </g>
  </g>
  <g>
    <path class="st1" d="M29.6,9.7h0c0-5.2,3.2-9.3,8-9.3s7.9,4,7.9,9.2h0c0,5.2-3.2,9.3-8,9.3s-7.9-4-7.9-9.2ZM41.4,9.7h0c0-3.3-1.6-5.8-3.9-5.8s-3.9,2.4-3.9,5.6h0c0,3.3,1.6,5.8,3.9,5.8s3.9-2.4,3.9-5.6Z"/>
    <path class="st1" d="M37.5,136.6l-3.1.8-.8-3.2,5.1-1.5h2.7v18h-3.9v-14Z"/>
  </g>
</svg>