<?xml version="1.0" encoding="UTF-8"?>
<svg id="Layer_2" data-name="Layer 2" xmlns="http://www.w3.org/2000/svg" viewBox="0 0 60 140">
  <defs>
    <style>
      .cls-1 {
        fill: #ffd605;
      }

      .cls-2 {
        fill: none;
        stroke: #fff;
        stroke-miterlimit: 10;
        stroke-width: 4px;
      }

      .cls-3 {
        fill: #e8be10;
      }

      .cls-4 {
        fill: #f7e289;
      }
    </style>
  </defs>
  <g id="Layer_1-2" data-name="Layer 1">
    <g>
      <g>
        <path class="cls-1" d="M60,8.83c0-4.88-3.94-8.83-8.8-8.83H8.8C3.94,0,0,3.95,0,8.83v60.84h60V8.83Z"/>
        <path class="cls-3" d="M0,69.67v61.5c0,4.88,3.94,8.83,8.8,8.83h42.39c4.86,0,8.8-3.95,8.8-8.83v-61.5H0Z"/>
        <path class="cls-4" d="M0,69.67v52.88c0,4.88,3.94,8.83,8.8,8.83h42.39c4.86,0,8.8-3.95,8.8-8.83v-52.88H0Z"/>
      </g>
      <circle class="cls-2" cx="30.44" cy="35.44" r="10.22"/>
      <line class="cls-2" x1="30.44" y1="92.11" x2="30.44" y2="108.33"/>
    </g>
  </g>
</svg>